<mxfile host="app.diagrams.net" modified="2024-07-05T08:52:21.186Z" agent="Mozilla/5.0 (Windows NT 10.0; Win64; x64) AppleWebKit/537.36 (KHTML, like Gecko) Chrome/126.0.0.0 Safari/537.36" etag="4x0FKBhsSmAyWELzPjG4" version="24.6.4" type="device">
  <diagram name="ページ1" id="OE5lINb2K-OW1BlraRe3">
    <mxGraphModel dx="880" dy="468" grid="1" gridSize="10" guides="1" tooltips="1" connect="1" arrows="1" fold="1" page="1" pageScale="1" pageWidth="827" pageHeight="1169" math="0" shadow="0">
      <root>
        <mxCell id="0" />
        <mxCell id="1" parent="0" />
        <mxCell id="7NjHDNb6HbL8g3CwUGnU-3" style="rounded=0;orthogonalLoop=1;jettySize=auto;html=1;exitX=0;exitY=0.5;exitDx=0;exitDy=0;entryX=1;entryY=0.5;entryDx=0;entryDy=0;endArrow=none;endFill=0;fontStyle=4" edge="1" parent="1" source="7NjHDNb6HbL8g3CwUGnU-1" target="7NjHDNb6HbL8g3CwUGnU-2">
          <mxGeometry relative="1" as="geometry" />
        </mxCell>
        <mxCell id="7NjHDNb6HbL8g3CwUGnU-1" value="P：先生" style="rounded=0;whiteSpace=wrap;html=1;fontSize=12;fontStyle=4" vertex="1" parent="1">
          <mxGeometry x="580" y="300" width="120" height="60" as="geometry" />
        </mxCell>
        <mxCell id="7NjHDNb6HbL8g3CwUGnU-2" value="1年1組：クラス" style="rounded=0;whiteSpace=wrap;html=1;fontStyle=4" vertex="1" parent="1">
          <mxGeometry x="330" y="380" width="120" height="60" as="geometry" />
        </mxCell>
        <mxCell id="7NjHDNb6HbL8g3CwUGnU-6" style="rounded=0;orthogonalLoop=1;jettySize=auto;html=1;exitX=0;exitY=0.5;exitDx=0;exitDy=0;entryX=1;entryY=0.5;entryDx=0;entryDy=0;endArrow=none;endFill=0;fontStyle=4" edge="1" parent="1" source="7NjHDNb6HbL8g3CwUGnU-4" target="7NjHDNb6HbL8g3CwUGnU-5">
          <mxGeometry relative="1" as="geometry" />
        </mxCell>
        <mxCell id="7NjHDNb6HbL8g3CwUGnU-8" style="rounded=0;orthogonalLoop=1;jettySize=auto;html=1;exitX=0;exitY=0.5;exitDx=0;exitDy=0;entryX=1;entryY=0.5;entryDx=0;entryDy=0;endArrow=none;endFill=0;fontStyle=4" edge="1" parent="1" source="7NjHDNb6HbL8g3CwUGnU-4" target="7NjHDNb6HbL8g3CwUGnU-7">
          <mxGeometry relative="1" as="geometry" />
        </mxCell>
        <mxCell id="7NjHDNb6HbL8g3CwUGnU-4" value="Q：先生" style="rounded=0;whiteSpace=wrap;html=1;fontStyle=4" vertex="1" parent="1">
          <mxGeometry x="580" y="220" width="120" height="60" as="geometry" />
        </mxCell>
        <mxCell id="7NjHDNb6HbL8g3CwUGnU-5" value="1年2組：クラス" style="rounded=0;whiteSpace=wrap;html=1;fontStyle=4" vertex="1" parent="1">
          <mxGeometry x="330" y="300" width="120" height="60" as="geometry" />
        </mxCell>
        <mxCell id="7NjHDNb6HbL8g3CwUGnU-7" value="バレーボール部：クラブ" style="rounded=0;whiteSpace=wrap;html=1;fontStyle=4" vertex="1" parent="1">
          <mxGeometry x="330" y="100" width="150" height="60" as="geometry" />
        </mxCell>
        <mxCell id="7NjHDNb6HbL8g3CwUGnU-10" style="edgeStyle=orthogonalEdgeStyle;rounded=0;orthogonalLoop=1;jettySize=auto;html=1;exitX=1;exitY=0.5;exitDx=0;exitDy=0;entryX=0;entryY=0.5;entryDx=0;entryDy=0;endArrow=none;endFill=0;fontStyle=4" edge="1" parent="1" source="7NjHDNb6HbL8g3CwUGnU-9" target="7NjHDNb6HbL8g3CwUGnU-2">
          <mxGeometry relative="1" as="geometry" />
        </mxCell>
        <mxCell id="7NjHDNb6HbL8g3CwUGnU-9" value="A：生徒" style="rounded=0;whiteSpace=wrap;html=1;fontStyle=4" vertex="1" parent="1">
          <mxGeometry x="40" y="380" width="120" height="60" as="geometry" />
        </mxCell>
        <mxCell id="7NjHDNb6HbL8g3CwUGnU-12" style="rounded=0;orthogonalLoop=1;jettySize=auto;html=1;exitX=1;exitY=0.5;exitDx=0;exitDy=0;entryX=0;entryY=0.5;entryDx=0;entryDy=0;endArrow=none;endFill=0;fontStyle=4" edge="1" parent="1" source="7NjHDNb6HbL8g3CwUGnU-11" target="7NjHDNb6HbL8g3CwUGnU-2">
          <mxGeometry relative="1" as="geometry" />
        </mxCell>
        <mxCell id="7NjHDNb6HbL8g3CwUGnU-13" style="rounded=0;orthogonalLoop=1;jettySize=auto;html=1;exitX=1;exitY=0.5;exitDx=0;exitDy=0;entryX=0;entryY=0.5;entryDx=0;entryDy=0;endArrow=none;endFill=0;fontStyle=4" edge="1" parent="1" source="7NjHDNb6HbL8g3CwUGnU-11" target="7NjHDNb6HbL8g3CwUGnU-7">
          <mxGeometry relative="1" as="geometry" />
        </mxCell>
        <mxCell id="7NjHDNb6HbL8g3CwUGnU-11" value="B：生徒" style="rounded=0;whiteSpace=wrap;html=1;fontStyle=4" vertex="1" parent="1">
          <mxGeometry x="40" y="300" width="120" height="60" as="geometry" />
        </mxCell>
        <mxCell id="7NjHDNb6HbL8g3CwUGnU-16" style="rounded=0;orthogonalLoop=1;jettySize=auto;html=1;exitX=1;exitY=0.5;exitDx=0;exitDy=0;entryX=0;entryY=0.5;entryDx=0;entryDy=0;endArrow=none;endFill=0;fontStyle=4" edge="1" parent="1" source="7NjHDNb6HbL8g3CwUGnU-14" target="7NjHDNb6HbL8g3CwUGnU-5">
          <mxGeometry relative="1" as="geometry" />
        </mxCell>
        <mxCell id="7NjHDNb6HbL8g3CwUGnU-17" style="rounded=0;orthogonalLoop=1;jettySize=auto;html=1;exitX=1;exitY=0.5;exitDx=0;exitDy=0;entryX=0;entryY=0.5;entryDx=0;entryDy=0;endArrow=none;endFill=0;fontStyle=4" edge="1" parent="1" source="7NjHDNb6HbL8g3CwUGnU-14" target="7NjHDNb6HbL8g3CwUGnU-7">
          <mxGeometry relative="1" as="geometry" />
        </mxCell>
        <mxCell id="7NjHDNb6HbL8g3CwUGnU-14" value="C：生徒" style="rounded=0;whiteSpace=wrap;html=1;fontStyle=4" vertex="1" parent="1">
          <mxGeometry x="40" y="220" width="120" height="60" as="geometry" />
        </mxCell>
        <mxCell id="7NjHDNb6HbL8g3CwUGnU-18" value="所属する" style="text;html=1;align=center;verticalAlign=middle;resizable=0;points=[];autosize=1;strokeColor=none;fillColor=none;" vertex="1" parent="1">
          <mxGeometry x="210" y="140" width="70" height="30" as="geometry" />
        </mxCell>
        <mxCell id="7NjHDNb6HbL8g3CwUGnU-19" value="所属する" style="text;html=1;align=center;verticalAlign=middle;resizable=0;points=[];autosize=1;strokeColor=none;fillColor=none;" vertex="1" parent="1">
          <mxGeometry x="250" y="210" width="70" height="30" as="geometry" />
        </mxCell>
        <mxCell id="7NjHDNb6HbL8g3CwUGnU-20" value="顧問をする" style="text;html=1;align=center;verticalAlign=middle;resizable=0;points=[];autosize=1;strokeColor=none;fillColor=none;" vertex="1" parent="1">
          <mxGeometry x="530" y="170" width="80" height="30" as="geometry" />
        </mxCell>
        <mxCell id="7NjHDNb6HbL8g3CwUGnU-21" value="担任をする" style="text;html=1;align=center;verticalAlign=middle;resizable=0;points=[];autosize=1;strokeColor=none;fillColor=none;" vertex="1" parent="1">
          <mxGeometry x="470" y="250" width="80" height="30" as="geometry" />
        </mxCell>
        <mxCell id="7NjHDNb6HbL8g3CwUGnU-22" value="担任をする" style="text;html=1;align=center;verticalAlign=middle;resizable=0;points=[];autosize=1;strokeColor=none;fillColor=none;" vertex="1" parent="1">
          <mxGeometry x="490" y="315" width="80" height="30" as="geometry" />
        </mxCell>
        <mxCell id="7NjHDNb6HbL8g3CwUGnU-24" value="所属する" style="text;html=1;align=center;verticalAlign=middle;resizable=0;points=[];autosize=1;strokeColor=none;fillColor=none;" vertex="1" parent="1">
          <mxGeometry x="170" y="410" width="70" height="30" as="geometry" />
        </mxCell>
        <mxCell id="7NjHDNb6HbL8g3CwUGnU-25" value="所属する" style="text;html=1;align=center;verticalAlign=middle;resizable=0;points=[];autosize=1;strokeColor=none;fillColor=none;" vertex="1" parent="1">
          <mxGeometry x="210" y="300" width="70" height="30" as="geometry" />
        </mxCell>
        <mxCell id="7NjHDNb6HbL8g3CwUGnU-26" value="所属する" style="text;html=1;align=center;verticalAlign=middle;resizable=0;points=[];autosize=1;strokeColor=none;fillColor=none;" vertex="1" parent="1">
          <mxGeometry x="160" y="350" width="70" height="30" as="geometry" />
        </mxCell>
      </root>
    </mxGraphModel>
  </diagram>
</mxfile>
